<svg width="110" height="146" viewBox="0 0 110 146" fill="none" xmlns="http://www.w3.org/2000/svg">
<path d="M32.2351 98.5H77.7649C78.1709 98.5 78.5 98.8291 78.5 99.2351V122C78.5 134.979 67.9787 145.5 55 145.5C42.0213 145.5 31.5 134.979 31.5 122V99.2351C31.5 98.8291 31.8291 98.5 32.2351 98.5Z" stroke="black"/>
<path d="M109.5 12.9443L73.9216 96.9044C73.4741 97.9605 72.4383 98.6465 71.2913 98.6465H39.1695C38.0221 98.6465 36.986 97.96 36.5387 96.9034L1 12.9443" stroke="black"/>
<path d="M1 14.0001L10.7 1.06673C11.1 0.533395 11.9 0.533394 12.3 1.06673L21.2673 13.0232C21.6462 13.5284 22.3927 13.5602 22.8133 13.0892L33.7224 0.870962C34.131 0.4133 34.8516 0.42814 35.2411 0.902238L45.2436 13.0792C45.6382 13.5596 46.3709 13.5673 46.7756 13.0952L57.2071 0.925078C57.6175 0.446322 58.3631 0.462227 58.7527 0.958048L68.1952 12.9758C68.6013 13.4927 69.3872 13.4839 69.7816 12.958L78.7 1.06673C79.1 0.533395 79.9 0.533394 80.3 1.06673L89.1803 12.9072C89.5861 13.4483 90.4009 13.4388 90.7941 12.8884L99.1652 1.16875C99.57 0.602124 100.415 0.612291 100.806 1.18849L109.5 14.0001" stroke="black"/>
</svg>
